<?xml version="1.0" encoding="UTF-8" standalone="no"?>
<!DOCTYPE svg PUBLIC "-//W3C//DTD SVG 1.1//EN"
 "http://www.w3.org/Graphics/SVG/1.1/DTD/svg11.dtd">
<!-- Generated by graphviz version 2.40.1 (20161225.0304)
 -->
<!-- Title: dependencies Pages: 1 -->
<svg width="504pt" height="211pt"
 viewBox="0.00 0.00 504.00 211.00" xmlns="http://www.w3.org/2000/svg" xmlns:xlink="http://www.w3.org/1999/xlink">
<g id="graph0" class="graph" transform="scale(1 1) rotate(0) translate(4 207)">
<title>dependencies</title>
<polygon fill="#ffffff" stroke="transparent" points="-4,4 -4,-207 500,-207 500,4 -4,4"/>
<text text-anchor="start" x="227.0091" y="-42.4" font-family="sans-serif" font-weight="bold" font-size="14.00" fill="#000000">Legend</text>
<polygon fill="#ffffb3" stroke="transparent" points="14,-10 14,-30 34,-30 34,-10 14,-10"/>
<text text-anchor="start" x="37.629" y="-15.4" font-family="sans-serif" font-size="14.00" fill="#000000"> &#160;Declarations</text>
<polygon fill="#8dd3c7" stroke="transparent" points="127,-10 127,-30 147,-30 147,-10 127,-10"/>
<text text-anchor="start" x="150.7251" y="-15.4" font-family="sans-serif" font-size="14.00" fill="#000000"> &#160;Module</text>
<polygon fill="#80b1d3" stroke="transparent" points="213,-10 213,-30 233,-30 233,-10 213,-10"/>
<text text-anchor="start" x="236.7812" y="-15.4" font-family="sans-serif" font-size="14.00" fill="#000000"> &#160;Bootstrap</text>
<polygon fill="#fdb462" stroke="transparent" points="310,-10 310,-30 330,-30 330,-10 310,-10"/>
<text text-anchor="start" x="333.6732" y="-15.4" font-family="sans-serif" font-size="14.00" fill="#000000"> &#160;Providers</text>
<polygon fill="#fb8072" stroke="transparent" points="406,-10 406,-30 426,-30 426,-10 406,-10"/>
<text text-anchor="start" x="429.7258" y="-15.4" font-family="sans-serif" font-size="14.00" fill="#000000"> &#160;Exports</text>
<g id="clust1" class="cluster">
<title>cluster_CrmsystemModule</title>
<polygon fill="none" stroke="#000000" stroke-dasharray="1,5" points="43.5,-70 43.5,-195 452.5,-195 452.5,-70 43.5,-70"/>
</g>
<g id="clust2" class="cluster">
<title>cluster_CrmsystemModule_declarations</title>
<polygon fill="none" stroke="#000000" points="51.5,-78 51.5,-130 444.5,-130 444.5,-78 51.5,-78"/>
</g>
<!-- CustomersComponent -->
<g id="node1" class="node">
<title>CustomersComponent</title>
<polygon fill="#ffffb3" stroke="#000000" points="436.2148,-122 294.7852,-122 294.7852,-86 436.2148,-86 436.2148,-122"/>
<text text-anchor="middle" x="365.5" y="-99.8" font-family="Times,serif" font-size="14.00" fill="#000000">CustomersComponent</text>
</g>
<!-- CrmsystemModule -->
<g id="node4" class="node">
<title>CrmsystemModule</title>
<polygon fill="#8dd3c7" stroke="#000000" points="278.323,-187 275.323,-191 254.323,-191 251.323,-187 154.677,-187 154.677,-151 278.323,-151 278.323,-187"/>
<text text-anchor="middle" x="216.5" y="-164.8" font-family="Times,serif" font-size="14.00" fill="#000000">CrmsystemModule</text>
</g>
<!-- CustomersComponent&#45;&gt;CrmsystemModule -->
<g id="edge1" class="edge">
<title>CustomersComponent&#45;&gt;CrmsystemModule</title>
<path fill="none" stroke="#000000" d="M365.5,-122.1061C365.5,-141.3391 365.5,-169 365.5,-169 365.5,-169 288.395,-169 288.395,-169"/>
<polygon fill="#000000" stroke="#000000" points="288.395,-165.5001 278.395,-169 288.3949,-172.5001 288.395,-165.5001"/>
</g>
<!-- HighlightDirective -->
<g id="node2" class="node">
<title>HighlightDirective</title>
<polygon fill="#ffffb3" stroke="#000000" points="277.2521,-122 155.7479,-122 155.7479,-86 277.2521,-86 277.2521,-122"/>
<text text-anchor="middle" x="216.5" y="-99.8" font-family="Times,serif" font-size="14.00" fill="#000000">HighlightDirective</text>
</g>
<!-- HighlightDirective&#45;&gt;CrmsystemModule -->
<g id="edge2" class="edge">
<title>HighlightDirective&#45;&gt;CrmsystemModule</title>
<path fill="none" stroke="#000000" d="M216.5,-122.1061C216.5,-122.1061 216.5,-140.991 216.5,-140.991"/>
<polygon fill="#000000" stroke="#000000" points="213.0001,-140.9909 216.5,-150.991 220.0001,-140.991 213.0001,-140.9909"/>
</g>
<!-- SearchPipe -->
<g id="node3" class="node">
<title>SearchPipe</title>
<polygon fill="#ffffb3" stroke="#000000" points="137.9748,-122 59.0252,-122 59.0252,-86 137.9748,-86 137.9748,-122"/>
<text text-anchor="middle" x="98.5" y="-99.8" font-family="Times,serif" font-size="14.00" fill="#000000">SearchPipe</text>
</g>
<!-- SearchPipe&#45;&gt;CrmsystemModule -->
<g id="edge3" class="edge">
<title>SearchPipe&#45;&gt;CrmsystemModule</title>
<path fill="none" stroke="#000000" d="M98.5,-122.1061C98.5,-141.3391 98.5,-169 98.5,-169 98.5,-169 144.7353,-169 144.7353,-169"/>
<polygon fill="#000000" stroke="#000000" points="144.7353,-172.5001 154.7353,-169 144.7352,-165.5001 144.7353,-172.5001"/>
</g>
</g>
</svg>
